<svg xmlns="http://www.w3.org/2000/svg" version="1.1" xmlns:xlink="http://www.w3.org/1999/xlink" xmlns:svgjs="http://svgjs.dev/svgjs" width="1000" height="1000"><g clip-path="url(#SvgjsClipPath1071)"><rect width="1000" height="1000" fill="#ffffff"></rect><g transform="matrix(56.25,0,0,56.25,50,50)"><svg xmlns="http://www.w3.org/2000/svg" version="1.1" xmlns:xlink="http://www.w3.org/1999/xlink" xmlns:svgjs="http://svgjs.dev/svgjs" width="16" height="16"><svg xmlns="http://www.w3.org/2000/svg" width="16" height="16" viewBox="0 0 16 16"><path fill="currentColor" fill-rule="evenodd" d="M7.238 2.634a.75.75 0 1 0-1.476-.268L5.283 5H3a.75.75 0 1 0 0 1.5h2.01l-.545 3H2A.75.75 0 1 0 2 11h2.192l-.43 2.366a.75.75 0 1 0 1.476.268L5.717 11h3.475l-.43 2.366a.75.75 0 1 0 1.476.268L10.717 11H13a.75.75 0 0 0 0-1.5h-2.01l.545-3H14A.75.75 0 0 0 14 5h-2.192l.43-2.366a.75.75 0 1 0-1.476-.268L10.283 5H6.808zM9.465 9.5l.545-3H6.535l-.545 3z" clip-rule="evenodd"></path></svg></svg></g></g><defs><clipPath id="SvgjsClipPath1071"><rect width="1000" height="1000" x="0" y="0" rx="500" ry="500"></rect></clipPath></defs></svg>